<svg width="228" height="64" fill="none" xmlns="http://www.w3.org/2000/svg"><rect width="228" height="64" rx="32" fill="#fff"/><path d="M49.162 28.136a4.067 4.067 0 1 0 0-8.135 4.067 4.067 0 0 0 0 8.134Z" fill="#372158"/><path d="M44.928 40.133a9.194 9.194 0 0 1-8.973-7.2 4.79 4.79 0 0 1-.22-1.433v-5.499a3.868 3.868 0 0 0-7.735 0v5.308c0 7.04 5.734 12.829 12.773 12.689a12.517 12.517 0 0 0 10.876-6.79 9.162 9.162 0 0 1-6.72 2.925Z" fill="#2BC4C3"/><path d="M53.035 31.345a1.113 1.113 0 0 0-1.114-1.114h-5.523a1.114 1.114 0 0 0-1.114 1.114v.155a4.775 4.775 0 0 1-9.33 1.433A9.19 9.19 0 0 0 51.65 37.21a12.458 12.458 0 0 0 1.386-5.727v-.137Z" fill="url(#a)"/><rect x="69.769" y="20" width="57.865" height="4" rx="2" fill="#2BC4C3"/><rect x="70" y="30" width="129" height="4" rx="2" fill="#CEE2EC"/><rect x="70" y="40" width="122" height="4" rx="2" fill="#CEE2EC"/><defs><linearGradient id="a" x1="38.709" y1="46.455" x2="45.425" y2="31.473" gradientUnits="userSpaceOnUse"><stop offset=".29" stop-color="#0C9898"/><stop offset="1" stop-color="#2BC4C3"/></linearGradient></defs></svg>