<svg width="90" height="97" fill="none" xmlns="http://www.w3.org/2000/svg"><g filter="url(#a)"><rect x="9" width="72" height="72" rx="36" fill="#fff"/></g><path d="M32 49.467c.006 1.404 1.13 2.537 2.511 2.533l21-.106c1.382-.008 2.495-1.153 2.489-2.56l-3.358-22.377-3.142.014c.004-.09.004-.18.004-.27-.02-3.712-3-6.718-6.649-6.7-3.646.018-6.598 3.053-6.581 6.768 0 .09.003.178.007.27l-3.475.015L32 49.467Zm7.754-22.436c-.004-.09-.01-.18-.01-.27-.013-2.885 2.283-5.25 5.12-5.264 2.837-.011 5.156 2.326 5.17 5.212 0 .09-.002.18-.008.271l-10.272.05Z" fill="#65419A"/><defs><filter id="a" x="0" y="0" width="90" height="97" filterUnits="userSpaceOnUse" color-interpolation-filters="sRGB"><feFlood flood-opacity="0" result="BackgroundImageFix"/><feColorMatrix in="SourceAlpha" values="0 0 0 0 0 0 0 0 0 0 0 0 0 0 0 0 0 0 127 0" result="hardAlpha"/><feOffset dy="16"/><feGaussianBlur stdDeviation="4.5"/><feColorMatrix values="0 0 0 0 0.0669097 0 0 0 0 0.172136 0 0 0 0 0.341667 0 0 0 0.04 0"/><feBlend in2="BackgroundImageFix" result="effect1_dropShadow_7412_13809"/><feBlend in="SourceGraphic" in2="effect1_dropShadow_7412_13809" result="shape"/></filter></defs></svg>